<mxfile host="app.diagrams.net" modified="2023-02-07T22:34:00.123Z" agent="5.0 (Windows NT 10.0; Win64; x64) AppleWebKit/537.36 (KHTML, like Gecko) Chrome/109.0.0.0 Safari/537.36" etag="BHxTHmq1eVZv4KM6VGVG" version="20.8.16" type="github">
  <diagram name="Página-1" id="_4hRfpUhB_mt6dh8spTn">
    <mxGraphModel dx="880" dy="484" grid="1" gridSize="10" guides="1" tooltips="1" connect="1" arrows="1" fold="1" page="1" pageScale="1" pageWidth="827" pageHeight="1169" math="0" shadow="0">
      <root>
        <mxCell id="0" />
        <mxCell id="1" parent="0" />
        <mxCell id="4a8XquKaLrGHOPebOk4Q-5" value="" style="edgeStyle=orthogonalEdgeStyle;rounded=0;orthogonalLoop=1;jettySize=auto;html=1;" edge="1" parent="1" source="4a8XquKaLrGHOPebOk4Q-1">
          <mxGeometry relative="1" as="geometry">
            <mxPoint x="220" y="130" as="targetPoint" />
          </mxGeometry>
        </mxCell>
        <mxCell id="4a8XquKaLrGHOPebOk4Q-1" value="Inicio" style="ellipse;whiteSpace=wrap;html=1;" vertex="1" parent="1">
          <mxGeometry x="170" y="60" width="100" height="30" as="geometry" />
        </mxCell>
        <mxCell id="4a8XquKaLrGHOPebOk4Q-10" value="" style="edgeStyle=orthogonalEdgeStyle;rounded=0;orthogonalLoop=1;jettySize=auto;html=1;" edge="1" parent="1" source="4a8XquKaLrGHOPebOk4Q-6" target="4a8XquKaLrGHOPebOk4Q-9">
          <mxGeometry relative="1" as="geometry" />
        </mxCell>
        <mxCell id="4a8XquKaLrGHOPebOk4Q-6" value="Saldo Inicial" style="shape=display;whiteSpace=wrap;html=1;" vertex="1" parent="1">
          <mxGeometry x="290" y="130" width="90" height="50" as="geometry" />
        </mxCell>
        <mxCell id="4a8XquKaLrGHOPebOk4Q-8" value="" style="edgeStyle=orthogonalEdgeStyle;rounded=0;orthogonalLoop=1;jettySize=auto;html=1;" edge="1" parent="1" source="4a8XquKaLrGHOPebOk4Q-7" target="4a8XquKaLrGHOPebOk4Q-6">
          <mxGeometry relative="1" as="geometry" />
        </mxCell>
        <mxCell id="4a8XquKaLrGHOPebOk4Q-7" value="&lt;br&gt;Saldo" style="html=1;strokeWidth=2;shape=manualInput;whiteSpace=wrap;rounded=1;size=26;arcSize=11;" vertex="1" parent="1">
          <mxGeometry x="170" y="130" width="90" height="50" as="geometry" />
        </mxCell>
        <mxCell id="4a8XquKaLrGHOPebOk4Q-12" value="" style="edgeStyle=orthogonalEdgeStyle;rounded=0;orthogonalLoop=1;jettySize=auto;html=1;" edge="1" parent="1" source="4a8XquKaLrGHOPebOk4Q-9" target="4a8XquKaLrGHOPebOk4Q-11">
          <mxGeometry relative="1" as="geometry" />
        </mxCell>
        <mxCell id="4a8XquKaLrGHOPebOk4Q-19" value="" style="edgeStyle=orthogonalEdgeStyle;rounded=0;orthogonalLoop=1;jettySize=auto;html=1;" edge="1" parent="1" source="4a8XquKaLrGHOPebOk4Q-9" target="4a8XquKaLrGHOPebOk4Q-18">
          <mxGeometry relative="1" as="geometry" />
        </mxCell>
        <mxCell id="4a8XquKaLrGHOPebOk4Q-9" value="1 ou 2" style="rhombus;whiteSpace=wrap;html=1;" vertex="1" parent="1">
          <mxGeometry x="295" y="210" width="80" height="80" as="geometry" />
        </mxCell>
        <mxCell id="4a8XquKaLrGHOPebOk4Q-15" value="" style="edgeStyle=orthogonalEdgeStyle;rounded=0;orthogonalLoop=1;jettySize=auto;html=1;" edge="1" parent="1" source="4a8XquKaLrGHOPebOk4Q-11" target="4a8XquKaLrGHOPebOk4Q-13">
          <mxGeometry relative="1" as="geometry" />
        </mxCell>
        <mxCell id="4a8XquKaLrGHOPebOk4Q-11" value="&lt;br&gt;1 -&amp;nbsp; Entrada" style="html=1;strokeWidth=2;shape=manualInput;whiteSpace=wrap;rounded=1;size=26;arcSize=11;" vertex="1" parent="1">
          <mxGeometry x="170" y="225" width="90" height="50" as="geometry" />
        </mxCell>
        <mxCell id="4a8XquKaLrGHOPebOk4Q-17" value="" style="edgeStyle=orthogonalEdgeStyle;rounded=0;orthogonalLoop=1;jettySize=auto;html=1;" edge="1" parent="1" source="4a8XquKaLrGHOPebOk4Q-13" target="4a8XquKaLrGHOPebOk4Q-16">
          <mxGeometry relative="1" as="geometry" />
        </mxCell>
        <mxCell id="4a8XquKaLrGHOPebOk4Q-13" value="Somar com o estoque" style="shape=display;whiteSpace=wrap;html=1;" vertex="1" parent="1">
          <mxGeometry x="170" y="310" width="90" height="50" as="geometry" />
        </mxCell>
        <mxCell id="4a8XquKaLrGHOPebOk4Q-35" value="" style="edgeStyle=orthogonalEdgeStyle;rounded=0;orthogonalLoop=1;jettySize=auto;html=1;" edge="1" parent="1" source="4a8XquKaLrGHOPebOk4Q-16" target="4a8XquKaLrGHOPebOk4Q-34">
          <mxGeometry relative="1" as="geometry" />
        </mxCell>
        <mxCell id="4a8XquKaLrGHOPebOk4Q-16" value="&lt;br&gt;Saldo atual" style="html=1;strokeWidth=2;shape=manualInput;whiteSpace=wrap;rounded=1;size=26;arcSize=11;" vertex="1" parent="1">
          <mxGeometry x="170" y="380" width="90" height="50" as="geometry" />
        </mxCell>
        <mxCell id="4a8XquKaLrGHOPebOk4Q-21" value="" style="edgeStyle=orthogonalEdgeStyle;rounded=0;orthogonalLoop=1;jettySize=auto;html=1;" edge="1" parent="1" source="4a8XquKaLrGHOPebOk4Q-18">
          <mxGeometry relative="1" as="geometry">
            <mxPoint x="445" y="310" as="targetPoint" />
          </mxGeometry>
        </mxCell>
        <mxCell id="4a8XquKaLrGHOPebOk4Q-18" value="&lt;br&gt;2- Saída" style="html=1;strokeWidth=2;shape=manualInput;whiteSpace=wrap;rounded=1;size=26;arcSize=11;" vertex="1" parent="1">
          <mxGeometry x="400" y="225" width="90" height="50" as="geometry" />
        </mxCell>
        <mxCell id="4a8XquKaLrGHOPebOk4Q-25" value="" style="edgeStyle=orthogonalEdgeStyle;rounded=0;orthogonalLoop=1;jettySize=auto;html=1;" edge="1" parent="1" source="4a8XquKaLrGHOPebOk4Q-22">
          <mxGeometry relative="1" as="geometry">
            <mxPoint x="520" y="350" as="targetPoint" />
          </mxGeometry>
        </mxCell>
        <mxCell id="4a8XquKaLrGHOPebOk4Q-30" value="" style="edgeStyle=orthogonalEdgeStyle;rounded=0;orthogonalLoop=1;jettySize=auto;html=1;" edge="1" parent="1" source="4a8XquKaLrGHOPebOk4Q-22" target="4a8XquKaLrGHOPebOk4Q-29">
          <mxGeometry relative="1" as="geometry" />
        </mxCell>
        <mxCell id="4a8XquKaLrGHOPebOk4Q-22" value="Subtrair&amp;nbsp;" style="rhombus;whiteSpace=wrap;html=1;" vertex="1" parent="1">
          <mxGeometry x="405" y="310" width="85" height="80" as="geometry" />
        </mxCell>
        <mxCell id="4a8XquKaLrGHOPebOk4Q-28" value="" style="edgeStyle=orthogonalEdgeStyle;rounded=0;orthogonalLoop=1;jettySize=auto;html=1;" edge="1" parent="1" source="4a8XquKaLrGHOPebOk4Q-26" target="4a8XquKaLrGHOPebOk4Q-27">
          <mxGeometry relative="1" as="geometry" />
        </mxCell>
        <mxCell id="4a8XquKaLrGHOPebOk4Q-26" value="Se &amp;lt; ou =" style="rhombus;whiteSpace=wrap;html=1;" vertex="1" parent="1">
          <mxGeometry x="520" y="310" width="85" height="80" as="geometry" />
        </mxCell>
        <mxCell id="4a8XquKaLrGHOPebOk4Q-27" value="&lt;br&gt;Mostrar saldo" style="html=1;strokeWidth=2;shape=manualInput;whiteSpace=wrap;rounded=1;size=26;arcSize=11;" vertex="1" parent="1">
          <mxGeometry x="640" y="325" width="90" height="50" as="geometry" />
        </mxCell>
        <mxCell id="4a8XquKaLrGHOPebOk4Q-32" value="" style="edgeStyle=orthogonalEdgeStyle;rounded=0;orthogonalLoop=1;jettySize=auto;html=1;" edge="1" parent="1" source="4a8XquKaLrGHOPebOk4Q-29" target="4a8XquKaLrGHOPebOk4Q-31">
          <mxGeometry relative="1" as="geometry" />
        </mxCell>
        <mxCell id="4a8XquKaLrGHOPebOk4Q-29" value="Se &amp;gt;" style="rhombus;whiteSpace=wrap;html=1;" vertex="1" parent="1">
          <mxGeometry x="405" y="420" width="85" height="80" as="geometry" />
        </mxCell>
        <mxCell id="4a8XquKaLrGHOPebOk4Q-36" value="" style="edgeStyle=orthogonalEdgeStyle;rounded=0;orthogonalLoop=1;jettySize=auto;html=1;" edge="1" parent="1" source="4a8XquKaLrGHOPebOk4Q-31" target="4a8XquKaLrGHOPebOk4Q-34">
          <mxGeometry relative="1" as="geometry" />
        </mxCell>
        <mxCell id="4a8XquKaLrGHOPebOk4Q-31" value="&lt;br&gt;Saldo Insuficiente" style="html=1;strokeWidth=2;shape=manualInput;whiteSpace=wrap;rounded=1;size=26;arcSize=11;" vertex="1" parent="1">
          <mxGeometry x="290" y="435" width="90" height="50" as="geometry" />
        </mxCell>
        <mxCell id="4a8XquKaLrGHOPebOk4Q-34" value="Fim" style="ellipse;whiteSpace=wrap;html=1;" vertex="1" parent="1">
          <mxGeometry x="165" y="470" width="100" height="30" as="geometry" />
        </mxCell>
      </root>
    </mxGraphModel>
  </diagram>
</mxfile>
